<svg xmlns="http://www.w3.org/2000/svg" width="224.757" height="116.342" viewBox="0, 0, 224.757, 116.342"><g id="layer1"><path d="M0 0h224.757v116.342H0V0z" fill="#fff"/><path d="M104.147 97.364c4.292-.018 8.746.037 12.157.187l7.934.349 1.242 1.388c2.988 3.337 3.699 4.397 3.534 5.262-.092.482-.788 1.357-1.628 2.046l-1.467 1.203-4.403.177v-.001c-5.916.237-27.985.245-33.18.011l-4.166-.187-1.096-1.268c-.602-.698-1.095-1.444-1.095-1.659 0-.687 5.786-5.898 7.647-6.886.666-.353 7.368-.591 14.521-.622z" fill="#F00" id="path4605-6"/><path d="M137.082 59.818a.498.498 0 0 1 .282.064c.181.111 1.05 1.069 1.932 2.129 1.825 2.193 1.76 1.235.635 9.358-2.653 19.152-3.99 27.32-4.633 28.302-.318.485-1.253 1.311-2.078 1.834-.825.523-1.601.951-1.725.951-.124 0-1.35-1.202-2.725-2.671l-2.5-2.672.169-2.105c.244-3.031.921-8.215 2.963-22.667l1.076-7.61 2.136-1.984c1.915-1.779 3.669-2.915 4.468-2.929z" fill="#F00" fill-opacity=".157" id="path4603-7"/><path d="M88.289 59.712c.613 0 3.379 2.629 4.013 3.813.531.991-.267 7.627-2.542 21.121-.165.98-.463 2.947-.663 4.372a70.409 70.409 0 0 1-.873 4.822c-.574 2.518-1.092 3.153-5.379 6.592-1.388 1.113-2.706 2.024-2.929 2.024-.465 0-1.971-1.541-2.215-2.267-.169-.501.32-5.273 1.179-11.495 2.307-16.725 3.064-21.921 3.397-23.315.305-1.281.805-1.836 4.107-4.568.731-.604 1.588-1.099 1.905-1.099z" fill="#F00" id="path4601-5"/><path d="M96.673 52.426l16.691.074c15.699.07 16.74.11 17.506.677 1.177.87 3.24 3.676 3.242 4.409.002.646-3.276 3.955-5.017 5.066-.925.59-1.784.62-17.992.621-13.123.001-17.138-.092-17.54-.404-1.054-.819-3.488-3.945-3.488-4.479 0-.615 3.269-3.767 5.289-5.1z" fill="#F00" id="path4599-3"/><path d="M144.946 13.73c.392 0 1.065.377 1.497.838.695.743.779 1.105.726 3.158-.053 2.041-.314 4.289-1.395 12.033-1.496 10.711-1.995 14.183-2.26 15.705-.171.98-.403 2.508-.515 3.396-.299 2.355-.858 3.193-3.574 5.352-1.342 1.066-2.616 1.938-2.832 1.938-.717 0-1.715-.916-2.95-2.71l-1.222-1.775.38-2.857c.208-1.572.583-4.315.833-6.096.25-1.781.757-5.57 1.126-8.42.369-2.849.99-7.202 1.381-9.672l.709-4.491 1.466-1.388c2.792-2.646 5.922-5.011 6.63-5.011z" fill="#F00" fill-opacity=".157" id="path4597-5"/><path d="M93.366 13.582c.657.048 1.407.768 3.31 2.782l2.229 2.36-.206 2.903c-.113 1.597-.343 3.789-.51 4.87a291.93 291.93 0 0 0-.656 4.557 217.35 217.35 0 0 1-.668 4.534c-.174 1.068-.612 3.837-.973 6.152-.362 2.315-.807 5.144-.99 6.285-.507 3.177-1.195 4.14-4.82 6.749-.805.579-1.667 1.052-1.918 1.052-.53 0-2.817-2.381-3.421-3.562-.345-.676-.288-1.77.346-6.638.418-3.206.913-7.067 1.101-8.581.187-1.514.552-4.064.811-5.667.259-1.603.838-5.453 1.286-8.556.944-6.534 1.355-7.423 4.138-8.947.361-.197.641-.315.941-.293z" fill="#F00" fill-opacity=".157" id="path4595-6"/><path d="M114.658 8.005c3.214.014 6.884.059 10.994.135l14.692.272.609.797c.335.438.754.973.932 1.188.739.891.249 1.7-2.509 4.141-1.558 1.379-3.377 2.854-4.041 3.278l-1.208.771-15.955-.033c-8.775-.019-16.462-.152-17.082-.298-.621-.146-1.476-.678-1.9-1.182a98.37 98.37 0 0 0-1.948-2.211c-1.302-1.433-1.957-2.409-1.975-2.941-.015-.473 2.212-2.682 3.247-3.22.969-.504 6.502-.739 16.144-.697z" fill="#F00" fill-opacity=".157" id="path3765-2"/><path d="M173.722 97.457c4.292-.019 8.747.037 12.157.187l7.934.349 1.242 1.387c2.988 3.337 3.7 4.397 3.534 5.262-.092.483-.788 1.357-1.628 2.046l-1.467 1.204-4.403.176c-5.916.236-27.985.244-33.18.011l-4.166-.187-1.096-1.269c-.602-.697-1.095-1.444-1.095-1.658 0-.688 5.786-5.898 7.647-6.886.666-.354 7.368-.591 14.521-.622z" fill="#F00" id="path4605-1"/><path d="M206.657 59.91a.51.51 0 0 1 .282.064c.181.112 1.05 1.07 1.932 2.13 1.825 2.193 1.76 1.234.635 9.358-2.652 19.152-3.989 27.319-4.633 28.301-.318.486-1.253 1.311-2.078 1.834-.825.523-1.601.952-1.725.952-.124 0-1.349-1.203-2.724-2.672l-2.501-2.671.169-2.105c.244-3.031.921-8.216 2.963-22.668l1.076-7.609 2.136-1.984c1.915-1.78 3.669-2.915 4.468-2.93z" fill="#F00" id="path4603-2"/><path d="M157.865 59.805c.612 0 3.379 2.628 4.012 3.813.531.991-.267 7.626-2.541 21.121a200.07 200.07 0 0 0-.664 4.371 70.33 70.33 0 0 1-.873 4.823c-.574 2.518-1.092 3.153-5.379 6.592-1.388 1.113-2.706 2.024-2.929 2.024-.465 0-1.971-1.541-2.215-2.267-.169-.502.32-5.274 1.179-11.496 2.307-16.724 3.064-21.921 3.397-23.315.306-1.28.805-1.836 4.107-4.567.731-.605 1.588-1.099 1.906-1.099z" fill="#F00" id="path4601-7"/><path d="M166.248 52.519l16.692.074c15.698.069 16.739.11 17.505.676 1.178.87 3.24 3.676 3.242 4.41 0 .645-3.276 3.955-5.017 5.065-.925.59-1.784.62-17.991.621-13.124.001-17.139-.091-17.54-.403-1.055-.82-3.489-3.945-3.489-4.479 0-.615 3.269-3.767 5.289-5.1z" fill="#F00" fill-opacity=".157" id="path4599-0"/><path d="M214.521 13.822c.392 0 1.066.378 1.497.839.695.742.779 1.105.726 3.157-.053 2.042-.313 4.29-1.395 12.033-1.495 10.711-1.995 14.183-2.26 15.706a87.926 87.926 0 0 0-.515 3.395c-.298 2.356-.858 3.194-3.574 5.352-1.342 1.066-2.616 1.939-2.832 1.939-.717 0-1.714-.917-2.95-2.711l-1.222-1.774.38-2.858c.208-1.572.583-4.315.833-6.096.25-1.781.757-5.57 1.126-8.419.369-2.85.99-7.202 1.381-9.672l.709-4.491 1.466-1.389c2.792-2.646 5.922-5.011 6.63-5.011z" fill="#F00" id="path4597-9"/><path d="M162.941 13.674c.657.048 1.407.768 3.31 2.783l2.229 2.359-.206 2.904c-.113 1.597-.343 3.788-.51 4.87a302.548 302.548 0 0 0-.656 4.557 218.174 218.174 0 0 1-.668 4.533c-.174 1.069-.612 3.837-.973 6.153-.362 2.315-.807 5.143-.99 6.285-.507 3.176-1.195 4.14-4.82 6.748-.804.579-1.667 1.053-1.918 1.053-.53 0-2.817-2.381-3.421-3.562-.345-.676-.288-1.77.346-6.639.418-3.205.913-7.067 1.101-8.581.187-1.514.552-4.064.811-5.667.259-1.602.838-5.453 1.286-8.555.944-6.535 1.355-7.424 4.138-8.947.361-.198.642-.315.941-.294z" fill="#F00" id="path4595-3"/><path d="M184.233 8.097c3.214.014 6.884.06 10.995.136l14.691.272.609.797c.335.438.754.972.932 1.187.739.892.249 1.701-2.509 4.142-1.558 1.379-3.377 2.854-4.041 3.278l-1.208.771-15.955-.034c-8.774-.018-16.462-.152-17.082-.298-.621-.146-1.475-.677-1.899-1.181a96.492 96.492 0 0 0-1.948-2.211c-1.303-1.434-1.958-2.409-1.976-2.942-.015-.472 2.213-2.681 3.247-3.219.969-.504 6.502-.74 16.144-.698z" fill="#F00" id="path3765-6"/><path d="M34.479 97.549v.001c4.292-.019 8.747.036 12.157.186l7.934.349 1.242 1.388c2.988 3.337 3.7 4.397 3.534 5.262-.092.482-.788 1.357-1.628 2.046l-1.466 1.203-4.403.177v-.001c-5.917.237-27.986.245-33.18.011l-4.167-.187-1.096-1.268c-.602-.698-1.094-1.444-1.094-1.659 0-.687 5.785-5.897 7.646-6.885.666-.354 7.368-.592 14.521-.623z" fill="#F00" id="path4605-62"/><path d="M67.415 60.003a.506.506 0 0 1 .282.064c.18.111 1.049 1.069 1.931 2.129 1.825 2.193 1.76 1.235.635 9.359-2.652 19.151-3.989 27.319-4.633 28.301-.318.485-1.253 1.311-2.078 1.834-.825.523-1.601.951-1.725.951-.123 0-1.349-1.202-2.724-2.671l-2.5-2.672.169-2.105c.243-3.031.92-8.215 2.963-22.667l1.075-7.61 2.136-1.984c1.916-1.779 3.669-2.915 4.469-2.929z" fill="#F00" fill-opacity=".157" id="path4603-6"/><path d="M18.622 59.897c.612 0 3.379 2.629 4.013 3.813.53.991-.268 7.627-2.542 21.121-.165.98-.464 2.947-.664 4.372a69.712 69.712 0 0 1-.872 4.822c-.575 2.518-1.093 3.153-5.38 6.592-1.388 1.113-2.706 2.024-2.929 2.024-.465 0-1.97-1.541-2.215-2.267-.169-.501.321-5.273 1.179-11.495 2.307-16.725 3.064-21.921 3.397-23.315.306-1.281.805-1.836 4.107-4.568.731-.604 1.589-1.099 1.906-1.099z" fill="#F00" id="path4601-1"/><path d="M27.006 52.611l16.691.074c15.698.07 16.739.11 17.506.677 1.177.87 3.239 3.676 3.242 4.409.001.646-3.277 3.956-5.018 5.066-.925.59-1.784.62-17.991.621-13.124.001-17.139-.092-17.54-.404-1.055-.819-3.489-3.944-3.489-4.479 0-.615 3.269-3.767 5.289-5.1z" fill="#F00" fill-opacity=".157" id="path4599-8"/><path d="M75.279 13.915c.391 0 1.065.377 1.497.839.695.742.778 1.104.725 3.157-.053 2.041-.313 4.289-1.395 12.033-1.495 10.711-1.995 14.183-2.26 15.705-.17.98-.402 2.508-.515 3.396-.298 2.355-.858 3.193-3.574 5.352-1.341 1.066-2.615 1.938-2.831 1.938-.718 0-1.715-.916-2.951-2.71l-1.222-1.775.38-2.857c.209-1.572.584-4.315.833-6.096.25-1.781.757-5.57 1.126-8.42.37-2.849.991-7.202 1.381-9.672l.709-4.491 1.466-1.388c2.792-2.646 5.922-5.011 6.631-5.011z" fill="#F00" fill-opacity=".157" id="path4597-7"/><path d="M23.698 13.767c.658.048 1.407.768 3.31 2.782l2.23 2.36-.207 2.903c-.113 1.597-.343 3.789-.51 4.87a318.02 318.02 0 0 0-.656 4.557 217.35 217.35 0 0 1-.668 4.534c-.174 1.068-.612 3.837-.973 6.152-.362 2.315-.807 5.144-.989 6.286-.508 3.176-1.196 4.14-4.821 6.748-.804.579-1.667 1.052-1.917 1.052-.531 0-2.818-2.381-3.421-3.562-.346-.676-.289-1.77.345-6.638.418-3.206.913-7.067 1.101-8.581.188-1.514.553-4.064.811-5.667.259-1.603.838-5.453 1.286-8.556.944-6.534 1.355-7.423 4.138-8.947.361-.197.642-.315.941-.293z" fill="#F00" id="path4595-9"/><path d="M44.99 8.19c3.214.014 6.884.059 10.995.135l14.691.272.609.797c.335.438.754.973.932 1.188.739.891.25 1.7-2.508 4.141-1.559 1.379-3.378 2.854-4.042 3.278l-1.208.771-15.954-.033c-8.775-.019-16.462-.152-17.083-.298-.62-.146-1.475-.678-1.899-1.182a100.962 100.962 0 0 0-1.948-2.211c-1.303-1.433-1.958-2.409-1.975-2.941-.016-.472 2.212-2.681 3.246-3.22.969-.504 6.502-.739 16.144-.697z" fill="#F00" fill-opacity=".157" id="path3765-20"/></g></svg>